<svg width="17" height="12" viewBox="0 0 17 12" fill="none" xmlns="http://www.w3.org/2000/svg">
<path d="M3.13602 11.552C2.19735 11.552 1.44002 11.2586 0.86402 10.672C0.28802 10.0746 1.95503e-05 9.29064 1.95503e-05 8.31998V3.23198C1.95503e-05 2.26131 0.28802 1.48264 0.86402 0.895976C1.44002 0.298643 2.19735 -2.38419e-05 3.13602 -2.38419e-05C3.75469 -2.38419e-05 4.30402 0.133309 4.78402 0.399976C5.26402 0.666643 5.63202 1.04531 5.88802 1.53598C6.15469 2.02664 6.28802 2.59198 6.28802 3.23198V8.31998C6.28802 8.95998 6.15469 9.52531 5.88802 10.016C5.63202 10.5066 5.26402 10.8853 4.78402 11.152C4.30402 11.4186 3.75469 11.552 3.13602 11.552ZM3.13602 9.61598C3.40269 9.61598 3.61602 9.50931 3.77602 9.29598C3.94669 9.08264 4.03202 8.79998 4.03202 8.44798V3.10398C4.03202 2.75198 3.94669 2.46931 3.77602 2.25598C3.61602 2.04264 3.40269 1.93598 3.13602 1.93598C2.86935 1.93598 2.65602 2.04264 2.49602 2.25598C2.33602 2.46931 2.25602 2.75198 2.25602 3.10398V8.44798C2.25602 8.79998 2.33602 9.08264 2.49602 9.29598C2.65602 9.50931 2.86935 9.61598 3.13602 9.61598ZM13.086 11.552C12.1474 11.552 11.39 11.2586 10.814 10.672C10.238 10.0746 9.95002 9.29064 9.95002 8.31998V3.23198C9.95002 2.26131 10.238 1.48264 10.814 0.895976C11.39 0.298643 12.1474 -2.38419e-05 13.086 -2.38419e-05C13.7047 -2.38419e-05 14.254 0.133309 14.734 0.399976C15.214 0.666643 15.582 1.04531 15.838 1.53598C16.1047 2.02664 16.238 2.59198 16.238 3.23198V8.31998C16.238 8.95998 16.1047 9.52531 15.838 10.016C15.582 10.5066 15.214 10.8853 14.734 11.152C14.254 11.4186 13.7047 11.552 13.086 11.552ZM13.086 9.61598C13.3527 9.61598 13.566 9.50931 13.726 9.29598C13.8967 9.08264 13.982 8.79998 13.982 8.44798V3.10398C13.982 2.75198 13.8967 2.46931 13.726 2.25598C13.566 2.04264 13.3527 1.93598 13.086 1.93598C12.8194 1.93598 12.606 2.04264 12.446 2.25598C12.286 2.46931 12.206 2.75198 12.206 3.10398V8.44798C12.206 8.79998 12.286 9.08264 12.446 9.29598C12.606 9.50931 12.8194 9.61598 13.086 9.61598Z" fill="white"/>
</svg>
