<svg width="14" height="12" viewBox="0 0 14 12" fill="none" xmlns="http://www.w3.org/2000/svg">
<path d="M3.13602 11.552C2.19735 11.552 1.44002 11.2586 0.86402 10.672C0.28802 10.0746 1.95503e-05 9.29064 1.95503e-05 8.31998V3.23198C1.95503e-05 2.26131 0.28802 1.48264 0.86402 0.895976C1.44002 0.298643 2.19735 -2.38419e-05 3.13602 -2.38419e-05C3.75469 -2.38419e-05 4.30402 0.133309 4.78402 0.399976C5.26402 0.666643 5.63202 1.04531 5.88802 1.53598C6.15469 2.02664 6.28802 2.59198 6.28802 3.23198V8.31998C6.28802 8.95998 6.15469 9.52531 5.88802 10.016C5.63202 10.5066 5.26402 10.8853 4.78402 11.152C4.30402 11.4186 3.75469 11.552 3.13602 11.552ZM3.13602 9.61598C3.40269 9.61598 3.61602 9.50931 3.77602 9.29598C3.94669 9.08264 4.03202 8.79998 4.03202 8.44798V3.10398C4.03202 2.75198 3.94669 2.46931 3.77602 2.25598C3.61602 2.04264 3.40269 1.93598 3.13602 1.93598C2.86935 1.93598 2.65602 2.04264 2.49602 2.25598C2.33602 2.46931 2.25602 2.75198 2.25602 3.10398V8.44798C2.25602 8.79998 2.33602 9.08264 2.49602 9.29598C2.65602 9.50931 2.86935 9.61598 3.13602 9.61598ZM11.07 0.223976C11.1554 0.191976 11.2354 0.175976 11.31 0.175976H13.246C13.2994 0.175976 13.342 0.197309 13.374 0.239976C13.4167 0.271976 13.438 0.314643 13.438 0.367976V11.184C13.438 11.2373 13.4167 11.2853 13.374 11.328C13.342 11.36 13.2994 11.376 13.246 11.376H11.374C11.3207 11.376 11.2727 11.36 11.23 11.328C11.198 11.2853 11.182 11.2373 11.182 11.184V2.44798C11.182 2.40531 11.1554 2.38398 11.102 2.38398L9.87002 2.52798H9.83802C9.72069 2.52798 9.66202 2.46931 9.66202 2.35198L9.61402 0.975976C9.61402 0.869309 9.66202 0.794643 9.75802 0.751976L11.07 0.223976Z" fill="white"/>
</svg>
