<svg width="17" height="12" viewBox="0 0 17 12" fill="none" xmlns="http://www.w3.org/2000/svg">
<path d="M3.13602 11.552C2.19735 11.552 1.44002 11.2586 0.86402 10.672C0.28802 10.0746 1.95503e-05 9.29064 1.95503e-05 8.31998V3.23198C1.95503e-05 2.26131 0.28802 1.48264 0.86402 0.895976C1.44002 0.298643 2.19735 -2.38419e-05 3.13602 -2.38419e-05C3.75469 -2.38419e-05 4.30402 0.133309 4.78402 0.399976C5.26402 0.666643 5.63202 1.04531 5.88802 1.53598C6.15469 2.02664 6.28802 2.59198 6.28802 3.23198V8.31998C6.28802 8.95998 6.15469 9.52531 5.88802 10.016C5.63202 10.5066 5.26402 10.8853 4.78402 11.152C4.30402 11.4186 3.75469 11.552 3.13602 11.552ZM3.13602 9.61598C3.40269 9.61598 3.61602 9.50931 3.77602 9.29598C3.94669 9.08264 4.03202 8.79998 4.03202 8.44798V3.10398C4.03202 2.75198 3.94669 2.46931 3.77602 2.25598C3.61602 2.04264 3.40269 1.93598 3.13602 1.93598C2.86935 1.93598 2.65602 2.04264 2.49602 2.25598C2.33602 2.46931 2.25602 2.75198 2.25602 3.10398V8.44798C2.25602 8.79998 2.33602 9.08264 2.49602 9.29598C2.65602 9.50931 2.86935 9.61598 3.13602 9.61598ZM12.622 9.34398C12.6007 9.36531 12.5954 9.38664 12.606 9.40798C12.6167 9.42931 12.638 9.43998 12.67 9.43998H16.014C16.0674 9.43998 16.11 9.46131 16.142 9.50398C16.1847 9.53598 16.206 9.57864 16.206 9.63198V11.184C16.206 11.2373 16.1847 11.2853 16.142 11.328C16.11 11.36 16.0674 11.376 16.014 11.376H10.094C10.0407 11.376 9.99269 11.36 9.95002 11.328C9.91802 11.2853 9.90202 11.2373 9.90202 11.184V9.56798C9.90202 9.47198 9.92869 9.39198 9.98202 9.32798C10.4087 8.76264 10.7074 8.37864 10.878 8.17598C11.8167 6.97064 12.4834 6.05864 12.878 5.43998C13.454 4.52264 13.742 3.74931 13.742 3.11998C13.742 2.75731 13.6674 2.47998 13.518 2.28798C13.3794 2.08531 13.1874 1.98398 12.942 1.98398C12.6967 1.98398 12.4994 2.08531 12.35 2.28798C12.2007 2.47998 12.1314 2.73064 12.142 3.03998V3.69598C12.142 3.74931 12.1207 3.79731 12.078 3.83998C12.046 3.87198 12.0034 3.88798 11.95 3.88798H10.046C9.99269 3.88798 9.94469 3.87198 9.90202 3.83998C9.87002 3.79731 9.85402 3.74931 9.85402 3.69598V2.94398C9.89669 2.06931 10.2114 1.37064 10.798 0.847976C11.3847 0.314643 12.1314 0.0479765 13.038 0.0479765C13.934 0.0479765 14.654 0.330643 15.198 0.895976C15.7527 1.46131 16.03 2.20798 16.03 3.13598C16.03 3.69064 15.9394 4.21864 15.758 4.71998C15.5874 5.22131 15.3047 5.75998 14.91 6.33598C14.6114 6.77331 14.0994 7.45598 13.374 8.38398L12.622 9.34398Z" fill="white"/>
</svg>
