<svg width="16" height="12" viewBox="0 0 16 12" fill="none" xmlns="http://www.w3.org/2000/svg">
<path d="M3.13602 11.552C2.19735 11.552 1.44002 11.2586 0.86402 10.672C0.28802 10.0746 1.95503e-05 9.29064 1.95503e-05 8.31998V3.23198C1.95503e-05 2.26131 0.28802 1.48264 0.86402 0.895976C1.44002 0.298643 2.19735 -2.38419e-05 3.13602 -2.38419e-05C3.75469 -2.38419e-05 4.30402 0.133309 4.78402 0.399976C5.26402 0.666643 5.63202 1.04531 5.88802 1.53598C6.15469 2.02664 6.28802 2.59198 6.28802 3.23198V8.31998C6.28802 8.95998 6.15469 9.52531 5.88802 10.016C5.63202 10.5066 5.26402 10.8853 4.78402 11.152C4.30402 11.4186 3.75469 11.552 3.13602 11.552ZM3.13602 9.61598C3.40269 9.61598 3.61602 9.50931 3.77602 9.29598C3.94669 9.08264 4.03202 8.79998 4.03202 8.44798V3.10398C4.03202 2.75198 3.94669 2.46931 3.77602 2.25598C3.61602 2.04264 3.40269 1.93598 3.13602 1.93598C2.86935 1.93598 2.65602 2.04264 2.49602 2.25598C2.33602 2.46931 2.25602 2.75198 2.25602 3.10398V8.44798C2.25602 8.79998 2.33602 9.08264 2.49602 9.29598C2.65602 9.50931 2.86935 9.61598 3.13602 9.61598ZM15.854 6.63998C15.9074 7.04531 15.934 7.43998 15.934 7.82398C15.934 8.29331 15.9127 8.69331 15.87 9.02398C15.7847 9.79198 15.486 10.4 14.974 10.848C14.4727 11.2853 13.7954 11.504 12.942 11.504C12.0567 11.504 11.3367 11.2693 10.782 10.8C10.2274 10.3306 9.92869 9.70664 9.88602 8.92798C9.85402 8.63998 9.83802 8.33064 9.83802 7.99998C9.83802 7.87198 9.90202 7.80798 10.03 7.80798H11.902C12.03 7.80798 12.094 7.87198 12.094 7.99998C12.094 8.24531 12.11 8.47464 12.142 8.68798C12.174 8.96531 12.2594 9.18398 12.398 9.34398C12.5367 9.49331 12.718 9.56798 12.942 9.56798C13.1554 9.56798 13.3314 9.49331 13.47 9.34398C13.6087 9.19464 13.6994 8.99198 13.742 8.73598C13.774 8.36264 13.79 7.97864 13.79 7.58398C13.79 7.08264 13.7634 6.68798 13.71 6.39998C13.6674 6.15464 13.5767 5.96798 13.438 5.83998C13.31 5.70131 13.1447 5.63198 12.942 5.63198C12.782 5.63198 12.622 5.70131 12.462 5.83998C12.398 5.88264 12.3554 5.90398 12.334 5.90398C12.2914 5.90398 12.2434 5.87731 12.19 5.82398L11.23 4.84798C11.1874 4.80531 11.166 4.75731 11.166 4.70398C11.166 4.66131 11.182 4.61864 11.214 4.57598L13.15 2.19198C13.1714 2.17064 13.1767 2.14931 13.166 2.12798C13.1554 2.10664 13.134 2.09598 13.102 2.09598H10.222C10.1687 2.09598 10.1207 2.07998 10.078 2.04798C10.046 2.00531 10.03 1.95731 10.03 1.90398V0.367976C10.03 0.314643 10.046 0.271976 10.078 0.239976C10.1207 0.197309 10.1687 0.175976 10.222 0.175976H15.726C15.7794 0.175976 15.822 0.197309 15.854 0.239976C15.8967 0.271976 15.918 0.314643 15.918 0.367976V1.96798C15.918 2.05331 15.8914 2.13331 15.838 2.20798L14.046 4.46398C14.0354 4.48531 14.03 4.50664 14.03 4.52798C14.03 4.54931 14.0407 4.55998 14.062 4.55998C14.5314 4.60264 14.926 4.81598 15.246 5.19998C15.5767 5.58398 15.7794 6.06398 15.854 6.63998Z" fill="white"/>
</svg>
